<?xml version="1.0" encoding="UTF-8" standalone="no"?>
<!DOCTYPE svg PUBLIC "-//W3C//DTD SVG 1.1//EN"
 "http://www.w3.org/Graphics/SVG/1.1/DTD/svg11.dtd">
<!-- Generated by graphviz version 2.38.0 (20140413.2041)
 -->
<!-- Title: safe_core Pages: 1 -->
<svg width="2924pt" height="620pt"
 viewBox="0.00 0.00 2923.54 620.00" xmlns="http://www.w3.org/2000/svg" xmlns:xlink="http://www.w3.org/1999/xlink">
<g id="graph0" class="graph" transform="scale(1 1) rotate(0) translate(4 616)">
<title>safe_core</title>
<polygon fill="white" stroke="none" points="-4,4 -4,-616 2919.54,-616 2919.54,4 -4,4"/>
<!-- N0 -->
<g id="node1" class="node"><title>N0</title>
<ellipse fill="none" stroke="black" cx="2056" cy="-594" rx="44.393" ry="18"/>
<text text-anchor="middle" x="2056" y="-590.3" font-family="Times,serif" font-size="14.00">safe_core</text>
</g>
<!-- N6 -->
<g id="node7" class="node"><title>N6</title>
<ellipse fill="none" stroke="black" cx="1878" cy="-522" rx="36.2938" ry="18"/>
<text text-anchor="middle" x="1878" y="-518.3" font-family="Times,serif" font-size="14.00">routing</text>
</g>
<!-- N0&#45;&gt;N6 -->
<g id="edge44" class="edge"><title>N0&#45;&gt;N6</title>
<path fill="none" stroke="black" d="M2025.4,-580.967C1994.86,-568.957 1947.9,-550.49 1915.22,-537.638"/>
<polygon fill="black" stroke="black" points="1916.16,-534.246 1905.57,-533.843 1913.6,-540.76 1916.16,-534.246"/>
</g>
<!-- N7 -->
<g id="node8" class="node"><title>N7</title>
<ellipse fill="none" stroke="black" cx="2487" cy="-306" rx="27" ry="18"/>
<text text-anchor="middle" x="2487" y="-302.3" font-family="Times,serif" font-size="14.00">cbor</text>
</g>
<!-- N0&#45;&gt;N7 -->
<g id="edge43" class="edge"><title>N0&#45;&gt;N7</title>
<path fill="none" stroke="black" d="M2079.79,-578.753C2132.37,-547.086 2262.13,-467.963 2367,-396 2400.33,-373.127 2437.56,-345.116 2461.58,-326.701"/>
<polygon fill="black" stroke="black" points="2464.01,-329.249 2469.8,-320.378 2459.74,-323.7 2464.01,-329.249"/>
</g>
<!-- N11 -->
<g id="node12" class="node"><title>N11</title>
<ellipse fill="none" stroke="black" cx="2474" cy="-90" rx="59.5901" ry="18"/>
<text text-anchor="middle" x="2474" y="-86.3" font-family="Times,serif" font-size="14.00">rustc&#45;serialize</text>
</g>
<!-- N0&#45;&gt;N11 -->
<g id="edge41" class="edge"><title>N0&#45;&gt;N11</title>
<path fill="none" stroke="black" d="M2100.12,-591.778C2236.63,-586.815 2643,-562.664 2643,-451 2643,-451 2643,-451 2643,-233 2643,-169.276 2571.7,-128.424 2521.72,-107.617"/>
<polygon fill="black" stroke="black" points="2522.93,-104.332 2512.35,-103.843 2520.32,-110.825 2522.93,-104.332"/>
</g>
<!-- N12 -->
<g id="node13" class="node"><title>N12</title>
<ellipse fill="none" stroke="black" cx="1891" cy="-306" rx="50.0912" ry="18"/>
<text text-anchor="middle" x="1891" y="-302.3" font-family="Times,serif" font-size="14.00">env_logger</text>
</g>
<!-- N0&#45;&gt;N12 -->
<g id="edge42" class="edge"><title>N0&#45;&gt;N12</title>
<path fill="none" stroke="black" d="M2057.15,-575.892C2059.04,-533.162 2057.71,-420.841 1998,-360 1981.27,-342.949 1957.91,-330.509 1937.29,-321.984"/>
<polygon fill="black" stroke="black" points="1938.32,-318.629 1927.74,-318.225 1935.76,-325.143 1938.32,-318.629"/>
</g>
<!-- N14 -->
<g id="node15" class="node"><title>N14</title>
<ellipse fill="none" stroke="black" cx="471" cy="-234" rx="27" ry="18"/>
<text text-anchor="middle" x="471" y="-230.3" font-family="Times,serif" font-size="14.00">rand</text>
</g>
<!-- N0&#45;&gt;N14 -->
<g id="edge38" class="edge"><title>N0&#45;&gt;N14</title>
<path fill="none" stroke="black" d="M2011.69,-592.465C1787.36,-589.612 775.291,-574.992 463,-540 254.758,-516.667 0,-660.545 0,-451 0,-451 0,-451 0,-377 0,-305.875 66.7563,-313.895 133,-288 236.546,-247.524 369.362,-237.903 433.295,-235.656"/>
<polygon fill="black" stroke="black" points="433.793,-239.142 443.68,-235.335 433.577,-232.146 433.793,-239.142"/>
</g>
<!-- N17 -->
<g id="node18" class="node"><title>N17</title>
<ellipse fill="none" stroke="black" cx="1257" cy="-90" rx="27" ry="18"/>
<text text-anchor="middle" x="1257" y="-86.3" font-family="Times,serif" font-size="14.00">log</text>
</g>
<!-- N0&#45;&gt;N17 -->
<g id="edge39" class="edge"><title>N0&#45;&gt;N17</title>
<path fill="none" stroke="black" d="M2049.03,-576.128C2031.07,-534.42 1979.41,-425.14 1906,-360 1878.64,-335.725 1859.31,-348.323 1832,-324 1796.55,-292.434 1757.25,-169.153 1717,-144 1646.69,-100.066 1391.05,-92.5223 1294.38,-91.2493"/>
<polygon fill="black" stroke="black" points="1294.23,-87.7475 1284.19,-91.131 1294.15,-94.747 1294.23,-87.7475"/>
</g>
<!-- N18 -->
<g id="node19" class="node"><title>N18</title>
<ellipse fill="none" stroke="black" cx="208" cy="-306" rx="65.7887" ry="18"/>
<text text-anchor="middle" x="208" y="-302.3" font-family="Times,serif" font-size="14.00">lru_time_cache</text>
</g>
<!-- N0&#45;&gt;N18 -->
<g id="edge40" class="edge"><title>N0&#45;&gt;N18</title>
<path fill="none" stroke="black" d="M2011.74,-591.833C1753.93,-584.774 451.937,-545.486 293,-468 254.249,-449.108 247.82,-434.285 228,-396 218.019,-376.719 212.992,-352.565 210.476,-334.287"/>
<polygon fill="black" stroke="black" points="213.942,-333.792 209.266,-324.285 206.992,-334.633 213.942,-333.792"/>
</g>
<!-- N35 -->
<g id="node36" class="node"><title>N35</title>
<ellipse fill="none" stroke="black" cx="2859" cy="-162" rx="56.59" ry="18"/>
<text text-anchor="middle" x="2859" y="-158.3" font-family="Times,serif" font-size="14.00">sodiumoxide</text>
</g>
<!-- N0&#45;&gt;N35 -->
<g id="edge37" class="edge"><title>N0&#45;&gt;N35</title>
<path fill="none" stroke="black" d="M2099.82,-591.269C2230.12,-585.829 2609.08,-567.766 2657,-540 2698.71,-515.832 2719,-499.207 2719,-451 2719,-451 2719,-451 2719,-305 2719,-247.549 2777.83,-204.912 2819.22,-182.024"/>
<polygon fill="black" stroke="black" points="2821.11,-184.979 2828.28,-177.172 2817.81,-178.808 2821.11,-184.979"/>
</g>
<!-- N36 -->
<g id="node37" class="node"><title>N36</title>
<ellipse fill="none" stroke="black" cx="2168" cy="-378" rx="65.7887" ry="18"/>
<text text-anchor="middle" x="2168" y="-374.3" font-family="Times,serif" font-size="14.00">self_encryption</text>
</g>
<!-- N0&#45;&gt;N36 -->
<g id="edge45" class="edge"><title>N0&#45;&gt;N36</title>
<path fill="none" stroke="black" d="M2064.79,-576.208C2084.25,-539.03 2131.08,-449.548 2154.37,-405.042"/>
<polygon fill="black" stroke="black" points="2157.56,-406.493 2159.1,-396.01 2151.36,-403.247 2157.56,-406.493"/>
</g>
<!-- N1 -->
<g id="node2" class="node"><title>N1</title>
<ellipse fill="none" stroke="black" cx="1926" cy="-234" rx="47.3916" ry="18"/>
<text text-anchor="middle" x="1926" y="-230.3" font-family="Times,serif" font-size="14.00">num_cpus</text>
</g>
<!-- N2 -->
<g id="node3" class="node"><title>N2</title>
<ellipse fill="none" stroke="black" cx="1888" cy="-18" rx="27" ry="18"/>
<text text-anchor="middle" x="1888" y="-14.3" font-family="Times,serif" font-size="14.00">libc</text>
</g>
<!-- N1&#45;&gt;N2 -->
<g id="edge1" class="edge"><title>N1&#45;&gt;N2</title>
<path fill="none" stroke="black" d="M1924.09,-215.971C1920.64,-186.473 1912.72,-124.037 1902,-72 1900.25,-63.4797 1897.96,-54.2869 1895.74,-45.9882"/>
<polygon fill="black" stroke="black" points="1899.04,-44.7893 1893.02,-36.0724 1892.29,-46.6422 1899.04,-44.7893"/>
</g>
<!-- N3 -->
<g id="node4" class="node"><title>N3</title>
<ellipse fill="none" stroke="black" cx="701" cy="-90" rx="51.9908" ry="18"/>
<text text-anchor="middle" x="701" y="-86.3" font-family="Times,serif" font-size="14.00">ws2_32&#45;sys</text>
</g>
<!-- N4 -->
<g id="node5" class="node"><title>N4</title>
<ellipse fill="none" stroke="black" cx="352" cy="-18" rx="34.394" ry="18"/>
<text text-anchor="middle" x="352" y="-14.3" font-family="Times,serif" font-size="14.00">winapi</text>
</g>
<!-- N3&#45;&gt;N4 -->
<g id="edge2" class="edge"><title>N3&#45;&gt;N4</title>
<path fill="none" stroke="black" d="M661.317,-78.3196C652.668,-76.1206 643.548,-73.899 635,-72 550.192,-53.1586 450.1,-35.4721 394.565,-26.0564"/>
<polygon fill="black" stroke="black" points="394.842,-22.5537 384.399,-24.3409 393.677,-29.4561 394.842,-22.5537"/>
</g>
<!-- N5 -->
<g id="node6" class="node"><title>N5</title>
<ellipse fill="none" stroke="black" cx="559" cy="-18" rx="55.7903" ry="18"/>
<text text-anchor="middle" x="559" y="-14.3" font-family="Times,serif" font-size="14.00">winapi&#45;build</text>
</g>
<!-- N3&#45;&gt;N5 -->
<g id="edge3" class="edge"><title>N3&#45;&gt;N5</title>
<path fill="none" stroke="black" d="M672.264,-74.8345C650.658,-64.1835 620.842,-49.4854 597.224,-37.8429"/>
<polygon fill="black" stroke="black" points="598.697,-34.667 588.18,-33.3847 595.602,-40.9456 598.697,-34.667"/>
</g>
<!-- N6&#45;&gt;N7 -->
<g id="edge4" class="edge"><title>N6&#45;&gt;N7</title>
<path fill="none" stroke="black" d="M1910.81,-513.974C1984.57,-497.671 2168.51,-454.181 2315,-396 2367.55,-375.128 2425.29,-343.266 2458.72,-323.864"/>
<polygon fill="black" stroke="black" points="2460.62,-326.811 2467.48,-318.741 2457.08,-320.768 2460.62,-326.811"/>
</g>
<!-- N8 -->
<g id="node9" class="node"><title>N8</title>
<ellipse fill="none" stroke="black" cx="2168" cy="-306" rx="34.394" ry="18"/>
<text text-anchor="middle" x="2168" y="-302.3" font-family="Times,serif" font-size="14.00">docopt</text>
</g>
<!-- N6&#45;&gt;N8 -->
<g id="edge5" class="edge"><title>N6&#45;&gt;N8</title>
<path fill="none" stroke="black" d="M1897.14,-506.389C1934.54,-477.904 2020.03,-413.085 2093,-360 2108.37,-348.814 2125.7,-336.549 2139.82,-326.638"/>
<polygon fill="black" stroke="black" points="2141.97,-329.405 2148.16,-320.801 2137.96,-323.671 2141.97,-329.405"/>
</g>
<!-- N9 -->
<g id="node10" class="node"><title>N9</title>
<ellipse fill="none" stroke="black" cx="1836" cy="-378" rx="39.7935" ry="18"/>
<text text-anchor="middle" x="1836" y="-374.3" font-family="Times,serif" font-size="14.00">itertools</text>
</g>
<!-- N6&#45;&gt;N9 -->
<g id="edge6" class="edge"><title>N6&#45;&gt;N9</title>
<path fill="none" stroke="black" d="M1873.02,-504.153C1865.86,-479.944 1852.58,-435.054 1844.03,-406.133"/>
<polygon fill="black" stroke="black" points="1847.3,-404.864 1841.11,-396.268 1840.59,-406.85 1847.3,-404.864"/>
</g>
<!-- N10 -->
<g id="node11" class="node"><title>N10</title>
<ellipse fill="none" stroke="black" cx="2728" cy="-162" rx="56.59" ry="18"/>
<text text-anchor="middle" x="2728" y="-158.3" font-family="Times,serif" font-size="14.00">sodiumoxide</text>
</g>
<!-- N6&#45;&gt;N10 -->
<g id="edge7" class="edge"><title>N6&#45;&gt;N10</title>
<path fill="none" stroke="black" d="M1914.53,-521.253C2036.61,-521.613 2429.13,-518.708 2543,-468 2585.5,-449.072 2591.78,-433.733 2619,-396 2632.03,-377.935 2690.96,-246.498 2716.33,-189.381"/>
<polygon fill="black" stroke="black" points="2719.66,-190.498 2720.52,-179.938 2713.26,-187.659 2719.66,-190.498"/>
</g>
<!-- N6&#45;&gt;N11 -->
<g id="edge8" class="edge"><title>N6&#45;&gt;N11</title>
<path fill="none" stroke="black" d="M1914.05,-518.327C2060.75,-506.481 2605,-452.714 2605,-307 2605,-307 2605,-307 2605,-233 2605,-177.728 2550.72,-134.775 2512.04,-111.184"/>
<polygon fill="black" stroke="black" points="2513.46,-107.96 2503.07,-105.887 2509.9,-113.987 2513.46,-107.96"/>
</g>
<!-- N6&#45;&gt;N12 -->
<g id="edge9" class="edge"><title>N6&#45;&gt;N12</title>
<path fill="none" stroke="black" d="M1894.07,-505.448C1903,-495.655 1913.24,-482.21 1918,-468 1933.25,-422.486 1929.2,-406.674 1918,-360 1915.76,-350.662 1911.58,-341.113 1907.17,-332.741"/>
<polygon fill="black" stroke="black" points="1910.13,-330.866 1902.19,-323.86 1904.03,-334.293 1910.13,-330.866"/>
</g>
<!-- N13 -->
<g id="node14" class="node"><title>N13</title>
<ellipse fill="none" stroke="black" cx="1591" cy="-450" rx="27.8951" ry="18"/>
<text text-anchor="middle" x="1591" y="-446.3" font-family="Times,serif" font-size="14.00">crust</text>
</g>
<!-- N6&#45;&gt;N13 -->
<g id="edge10" class="edge"><title>N6&#45;&gt;N13</title>
<path fill="none" stroke="black" d="M1846.19,-513.241C1792.19,-500.072 1682.98,-473.435 1626.55,-459.671"/>
<polygon fill="black" stroke="black" points="1627.2,-456.226 1616.65,-457.257 1625.54,-463.027 1627.2,-456.226"/>
</g>
<!-- N6&#45;&gt;N14 -->
<g id="edge11" class="edge"><title>N6&#45;&gt;N14</title>
<path fill="none" stroke="black" d="M1841.67,-520.893C1658.8,-519.833 839.001,-508.768 616,-396 554.882,-365.094 507.355,-296.712 485.002,-259.794"/>
<polygon fill="black" stroke="black" points="487.977,-257.947 479.869,-251.128 481.954,-261.515 487.977,-257.947"/>
</g>
<!-- N15 -->
<g id="node16" class="node"><title>N15</title>
<ellipse fill="none" stroke="black" cx="321" cy="-378" rx="54.6905" ry="18"/>
<text text-anchor="middle" x="321" y="-374.3" font-family="Times,serif" font-size="14.00">accumulator</text>
</g>
<!-- N6&#45;&gt;N15 -->
<g id="edge12" class="edge"><title>N6&#45;&gt;N15</title>
<path fill="none" stroke="black" d="M1841.45,-520.934C1630.92,-520.387 577.596,-515.285 442,-468 403.454,-454.558 366.804,-424.276 344.145,-402.775"/>
<polygon fill="black" stroke="black" points="346.346,-400.034 336.733,-395.579 341.47,-405.056 346.346,-400.034"/>
</g>
<!-- N16 -->
<g id="node17" class="node"><title>N16</title>
<ellipse fill="none" stroke="black" cx="430" cy="-306" rx="62.2891" ry="18"/>
<text text-anchor="middle" x="430" y="-302.3" font-family="Times,serif" font-size="14.00">message_filter</text>
</g>
<!-- N6&#45;&gt;N16 -->
<g id="edge13" class="edge"><title>N6&#45;&gt;N16</title>
<path fill="none" stroke="black" d="M1841.67,-520.46C1633.81,-517.256 602.601,-499.8 544,-468 489.839,-438.609 455.498,-371.004 439.87,-333.418"/>
<polygon fill="black" stroke="black" points="443.106,-332.083 436.128,-324.11 436.611,-334.694 443.106,-332.083"/>
</g>
<!-- N6&#45;&gt;N17 -->
<g id="edge14" class="edge"><title>N6&#45;&gt;N17</title>
<path fill="none" stroke="black" d="M1884.67,-504.229C1895.94,-472.923 1914.76,-404.72 1885,-360 1862.04,-325.504 1831.69,-349.466 1799,-324 1751.67,-287.124 1767.32,-250.176 1718,-216 1647.3,-167.002 1388.4,-115.322 1292.79,-97.4901"/>
<polygon fill="black" stroke="black" points="1293.22,-94.0093 1282.75,-95.6293 1291.94,-100.892 1293.22,-94.0093"/>
</g>
<!-- N6&#45;&gt;N18 -->
<g id="edge15" class="edge"><title>N6&#45;&gt;N18</title>
<path fill="none" stroke="black" d="M1841.66,-520.795C1626.34,-519.437 522.292,-510.437 378,-468 317.964,-450.343 300.502,-440.984 257,-396 239.563,-377.969 226.377,-352.506 218.101,-333.432"/>
<polygon fill="black" stroke="black" points="221.297,-332.002 214.224,-324.114 214.834,-334.691 221.297,-332.002"/>
</g>
<!-- N19 -->
<g id="node20" class="node"><title>N19</title>
<ellipse fill="none" stroke="black" cx="321" cy="-162" rx="27" ry="18"/>
<text text-anchor="middle" x="321" y="-158.3" font-family="Times,serif" font-size="14.00">time</text>
</g>
<!-- N6&#45;&gt;N19 -->
<g id="edge16" class="edge"><title>N6&#45;&gt;N19</title>
<path fill="none" stroke="black" d="M1841.52,-520.488C1611.31,-517.166 367.136,-497.88 293,-468 193.723,-427.988 82.4361,-382.34 133,-288 165.706,-226.978 242.785,-190.654 287.431,-173.997"/>
<polygon fill="black" stroke="black" points="288.753,-177.241 296.971,-170.553 286.376,-170.657 288.753,-177.241"/>
</g>
<!-- N7&#45;&gt;N11 -->
<g id="edge73" class="edge"><title>N7&#45;&gt;N11</title>
<path fill="none" stroke="black" d="M2507.3,-293.807C2521.62,-284.653 2539.68,-270.254 2548,-252 2554.64,-237.441 2552.23,-231.432 2548,-216 2537.62,-178.089 2512.45,-140.007 2494.35,-116.014"/>
<polygon fill="black" stroke="black" points="2496.92,-113.617 2488.04,-107.839 2491.38,-117.894 2496.92,-113.617"/>
</g>
<!-- N49 -->
<g id="node50" class="node"><title>N49</title>
<ellipse fill="none" stroke="black" cx="2495" cy="-234" rx="44.393" ry="18"/>
<text text-anchor="middle" x="2495" y="-230.3" font-family="Times,serif" font-size="14.00">byteorder</text>
</g>
<!-- N7&#45;&gt;N49 -->
<g id="edge72" class="edge"><title>N7&#45;&gt;N49</title>
<path fill="none" stroke="black" d="M2488.98,-287.697C2489.86,-279.983 2490.92,-270.712 2491.9,-262.112"/>
<polygon fill="black" stroke="black" points="2495.39,-262.437 2493.05,-252.104 2488.43,-261.642 2495.39,-262.437"/>
</g>
<!-- N8&#45;&gt;N11 -->
<g id="edge85" class="edge"><title>N8&#45;&gt;N11</title>
<path fill="none" stroke="black" d="M2158.92,-288.415C2147.65,-269.038 2126.84,-236.968 2102,-216 2074.96,-193.181 2049.52,-210.148 2031,-180 2022.63,-166.366 2020.38,-155.967 2031,-144 2034.11,-140.491 2286.4,-111.92 2408.81,-98.2442"/>
<polygon fill="black" stroke="black" points="2409.26,-101.715 2418.81,-97.127 2408.49,-94.7582 2409.26,-101.715"/>
</g>
<!-- N46 -->
<g id="node47" class="node"><title>N46</title>
<ellipse fill="none" stroke="black" cx="2180" cy="-234" rx="30.5947" ry="18"/>
<text text-anchor="middle" x="2180" y="-230.3" font-family="Times,serif" font-size="14.00">regex</text>
</g>
<!-- N8&#45;&gt;N46 -->
<g id="edge83" class="edge"><title>N8&#45;&gt;N46</title>
<path fill="none" stroke="black" d="M2170.9,-288.055C2172.23,-280.346 2173.82,-271.027 2175.31,-262.364"/>
<polygon fill="black" stroke="black" points="2178.8,-262.723 2177.04,-252.275 2171.9,-261.54 2178.8,-262.723"/>
</g>
<!-- N50 -->
<g id="node51" class="node"><title>N50</title>
<ellipse fill="none" stroke="black" cx="2061" cy="-234" rx="32.4942" ry="18"/>
<text text-anchor="middle" x="2061" y="-230.3" font-family="Times,serif" font-size="14.00">strsim</text>
</g>
<!-- N8&#45;&gt;N50 -->
<g id="edge84" class="edge"><title>N8&#45;&gt;N50</title>
<path fill="none" stroke="black" d="M2147.37,-291.503C2130.98,-280.783 2107.88,-265.668 2089.69,-253.768"/>
<polygon fill="black" stroke="black" points="2091.49,-250.764 2081.2,-248.218 2087.66,-256.621 2091.49,-250.764"/>
</g>
<!-- N10&#45;&gt;N11 -->
<g id="edge17" class="edge"><title>N10&#45;&gt;N11</title>
<path fill="none" stroke="black" d="M2686.63,-149.597C2642.92,-137.553 2573.9,-118.531 2526.42,-105.446"/>
<polygon fill="black" stroke="black" points="2527.2,-102.031 2516.63,-102.748 2525.34,-108.779 2527.2,-102.031"/>
</g>
<!-- N20 -->
<g id="node21" class="node"><title>N20</title>
<ellipse fill="none" stroke="black" cx="2728" cy="-90" rx="60.3893" ry="18"/>
<text text-anchor="middle" x="2728" y="-86.3" font-family="Times,serif" font-size="14.00">libsodium&#45;sys</text>
</g>
<!-- N10&#45;&gt;N20 -->
<g id="edge18" class="edge"><title>N10&#45;&gt;N20</title>
<path fill="none" stroke="black" d="M2728,-143.697C2728,-135.983 2728,-126.712 2728,-118.112"/>
<polygon fill="black" stroke="black" points="2731.5,-118.104 2728,-108.104 2724.5,-118.104 2731.5,-118.104"/>
</g>
<!-- N21 -->
<g id="node22" class="node"><title>N21</title>
<ellipse fill="none" stroke="black" cx="2306" cy="-18" rx="27" ry="18"/>
<text text-anchor="middle" x="2306" y="-14.3" font-family="Times,serif" font-size="14.00">libc</text>
</g>
<!-- N10&#45;&gt;N21 -->
<g id="edge19" class="edge"><title>N10&#45;&gt;N21</title>
<path fill="none" stroke="black" d="M2697.51,-146.736C2674.96,-136.142 2643.5,-121.289 2616,-108 2583.43,-92.2627 2577.12,-84.0326 2543,-72 2473.87,-47.6191 2389.33,-31.9098 2342.2,-24.3383"/>
<polygon fill="black" stroke="black" points="2342.59,-20.857 2332.17,-22.7599 2341.5,-27.7719 2342.59,-20.857"/>
</g>
<!-- N12&#45;&gt;N17 -->
<g id="edge63" class="edge"><title>N12&#45;&gt;N17</title>
<path fill="none" stroke="black" d="M1882.04,-288.148C1862.94,-254.118 1814.62,-177.584 1750,-144 1670.59,-102.728 1394.96,-93.5359 1294.23,-91.5388"/>
<polygon fill="black" stroke="black" points="1294,-88.034 1283.93,-91.348 1293.87,-95.0328 1294,-88.034"/>
</g>
<!-- N12&#45;&gt;N46 -->
<g id="edge64" class="edge"><title>N12&#45;&gt;N46</title>
<path fill="none" stroke="black" d="M1929.88,-294.485C1938.16,-292.298 1946.86,-290.04 1955,-288 2020.55,-271.578 2097.21,-253.829 2142.01,-243.604"/>
<polygon fill="black" stroke="black" points="2142.9,-246.99 2151.88,-241.356 2141.35,-240.165 2142.9,-246.99"/>
</g>
<!-- N13&#45;&gt;N2 -->
<g id="edge123" class="edge"><title>N13&#45;&gt;N2</title>
<path fill="none" stroke="black" d="M1612.9,-438.579C1630.71,-429.292 1655.64,-414.348 1673,-396 1778.67,-284.293 1852.5,-111.099 1878.1,-45.4449"/>
<polygon fill="black" stroke="black" points="1881.46,-46.4468 1881.79,-35.857 1874.93,-43.9315 1881.46,-46.4468"/>
</g>
<!-- N13&#45;&gt;N7 -->
<g id="edge126" class="edge"><title>N13&#45;&gt;N7</title>
<path fill="none" stroke="black" d="M1619.04,-449.386C1710.18,-450.078 2005.86,-447.893 2243,-396 2322.2,-378.668 2410.52,-341.777 2456.07,-321.353"/>
<polygon fill="black" stroke="black" points="2457.72,-324.449 2465.39,-317.137 2454.83,-318.071 2457.72,-324.449"/>
</g>
<!-- N13&#45;&gt;N8 -->
<g id="edge122" class="edge"><title>N13&#45;&gt;N8</title>
<path fill="none" stroke="black" d="M1616.84,-443.116C1648.27,-435.285 1702.29,-419.617 1744,-396 1765.69,-383.718 1764.06,-369.746 1787,-360 1925.64,-301.103 1977.6,-359.448 2124,-324 2126.84,-323.313 2129.73,-322.489 2132.62,-321.578"/>
<polygon fill="black" stroke="black" points="2134,-324.804 2142.3,-318.222 2131.71,-318.19 2134,-324.804"/>
</g>
<!-- N13&#45;&gt;N9 -->
<g id="edge131" class="edge"><title>N13&#45;&gt;N9</title>
<path fill="none" stroke="black" d="M1616.41,-442.246C1653.09,-432.431 1722.94,-413.486 1782,-396 1786.25,-394.742 1790.68,-393.399 1795.09,-392.042"/>
<polygon fill="black" stroke="black" points="1796.14,-395.382 1804.65,-389.071 1794.06,-388.697 1796.14,-395.382"/>
</g>
<!-- N13&#45;&gt;N11 -->
<g id="edge133" class="edge"><title>N13&#45;&gt;N11</title>
<path fill="none" stroke="black" d="M1615.1,-440.549C1639.23,-431.492 1676.87,-415.719 1706,-396 1725.26,-382.958 1726.54,-375.376 1744,-360 1781.92,-326.601 1786.73,-310.463 1832,-288 1893.41,-257.524 1931.09,-297.925 1982,-252 2019.78,-217.915 1980.25,-175.772 2020,-144 2023.77,-140.988 2283.96,-111.95 2408.7,-98.1786"/>
<polygon fill="black" stroke="black" points="2409.33,-101.63 2418.89,-97.0543 2408.56,-94.6722 2409.33,-101.63"/>
</g>
<!-- N13&#45;&gt;N14 -->
<g id="edge127" class="edge"><title>N13&#45;&gt;N14</title>
<path fill="none" stroke="black" d="M1562.91,-448.762C1416.03,-447.337 740.132,-438.501 658,-396 603.505,-367.8 619.292,-327.094 572,-288 560.429,-278.435 527.132,-261.607 501.905,-249.476"/>
<polygon fill="black" stroke="black" points="503.227,-246.228 492.694,-245.081 500.212,-252.546 503.227,-246.228"/>
</g>
<!-- N13&#45;&gt;N17 -->
<g id="edge121" class="edge"><title>N13&#45;&gt;N17</title>
<path fill="none" stroke="black" d="M1564.77,-443.772C1539.88,-437.265 1503.83,-423.474 1487,-396 1444.8,-327.133 1554.73,-284.538 1512,-216 1463.62,-138.409 1351.51,-107.636 1293.4,-96.5686"/>
<polygon fill="black" stroke="black" points="1293.67,-93.0604 1283.2,-94.7245 1292.42,-99.9486 1293.67,-93.0604"/>
</g>
<!-- N13&#45;&gt;N19 -->
<g id="edge130" class="edge"><title>N13&#45;&gt;N19</title>
<path fill="none" stroke="black" d="M1562.75,-448.615C1411.91,-446.406 705.037,-434.082 616,-396 551.532,-368.427 557.793,-329.121 501,-288 473.936,-268.404 462.929,-270.342 435,-252 402.289,-230.517 367.152,-202.203 344.669,-183.339"/>
<polygon fill="black" stroke="black" points="346.883,-180.628 336.986,-176.847 342.365,-185.975 346.883,-180.628"/>
</g>
<!-- N25 -->
<g id="node26" class="node"><title>N25</title>
<ellipse fill="none" stroke="black" cx="1544" cy="-378" rx="48.1917" ry="18"/>
<text text-anchor="middle" x="1544" y="-374.3" font-family="Times,serif" font-size="14.00">crossbeam</text>
</g>
<!-- N13&#45;&gt;N25 -->
<g id="edge132" class="edge"><title>N13&#45;&gt;N25</title>
<path fill="none" stroke="black" d="M1580.33,-433.116C1574.61,-424.592 1567.42,-413.886 1560.95,-404.251"/>
<polygon fill="black" stroke="black" points="1563.76,-402.149 1555.28,-395.797 1557.95,-406.051 1563.76,-402.149"/>
</g>
<!-- N41 -->
<g id="node42" class="node"><title>N41</title>
<ellipse fill="none" stroke="black" cx="503" cy="-162" rx="27" ry="18"/>
<text text-anchor="middle" x="503" y="-158.3" font-family="Times,serif" font-size="14.00">net2</text>
</g>
<!-- N13&#45;&gt;N41 -->
<g id="edge129" class="edge"><title>N13&#45;&gt;N41</title>
<path fill="none" stroke="black" d="M1562.86,-448.768C1441.16,-447.504 959.857,-439.781 816,-396 686.198,-356.496 567.916,-236.187 522.579,-185.691"/>
<polygon fill="black" stroke="black" points="525.194,-183.365 515.938,-178.21 519.959,-188.012 525.194,-183.365"/>
</g>
<!-- N53 -->
<g id="node54" class="node"><title>N53</title>
<ellipse fill="none" stroke="black" cx="144" cy="-162" rx="27.0966" ry="18"/>
<text text-anchor="middle" x="144" y="-158.3" font-family="Times,serif" font-size="14.00">term</text>
</g>
<!-- N13&#45;&gt;N53 -->
<g id="edge124" class="edge"><title>N13&#45;&gt;N53</title>
<path fill="none" stroke="black" d="M1562.9,-448.696C1382.15,-446.634 386.437,-433.625 257,-396 195.805,-378.212 164.796,-379.229 133,-324 108.804,-281.972 122.357,-223.173 133.673,-189.497"/>
<polygon fill="black" stroke="black" points="137.033,-190.493 137.069,-179.898 130.434,-188.158 137.033,-190.493"/>
</g>
<!-- N58 -->
<g id="node59" class="node"><title>N58</title>
<ellipse fill="none" stroke="black" cx="1637" cy="-378" rx="27" ry="18"/>
<text text-anchor="middle" x="1637" y="-374.3" font-family="Times,serif" font-size="14.00">igd</text>
</g>
<!-- N13&#45;&gt;N58 -->
<g id="edge125" class="edge"><title>N13&#45;&gt;N58</title>
<path fill="none" stroke="black" d="M1601.44,-433.116C1607.2,-424.345 1614.48,-413.264 1620.96,-403.416"/>
<polygon fill="black" stroke="black" points="1624.04,-405.1 1626.6,-394.821 1618.19,-401.256 1624.04,-405.1"/>
</g>
<!-- N60 -->
<g id="node61" class="node"><title>N60</title>
<ellipse fill="none" stroke="black" cx="869" cy="-378" rx="44.393" ry="18"/>
<text text-anchor="middle" x="869" y="-374.3" font-family="Times,serif" font-size="14.00">temp_utp</text>
</g>
<!-- N13&#45;&gt;N60 -->
<g id="edge128" class="edge"><title>N13&#45;&gt;N60</title>
<path fill="none" stroke="black" d="M1563.58,-446.341C1456.4,-435.95 1064.7,-397.974 921.708,-384.11"/>
<polygon fill="black" stroke="black" points="921.739,-380.597 911.448,-383.115 921.064,-387.564 921.739,-380.597"/>
</g>
<!-- N14&#45;&gt;N4 -->
<g id="edge59" class="edge"><title>N14&#45;&gt;N4</title>
<path fill="none" stroke="black" d="M444.014,-233.383C367.471,-233.836 151.686,-230.527 108,-180 75.959,-142.941 145.911,-77.2365 153,-72 198.695,-38.2442 264.332,-25.9736 307.551,-21.5216"/>
<polygon fill="black" stroke="black" points="308.127,-24.9831 317.76,-20.5721 307.479,-18.0132 308.127,-24.9831"/>
</g>
<!-- N14&#45;&gt;N21 -->
<g id="edge57" class="edge"><title>N14&#45;&gt;N21</title>
<path fill="none" stroke="black" d="M497.971,-231.452C635.929,-223.513 1257.77,-187.44 1298,-180 1456.83,-150.628 1486.41,-102.643 1645,-72 1766.11,-48.5991 2147.59,-27.2394 2268.71,-20.8993"/>
<polygon fill="black" stroke="black" points="2269.15,-24.3815 2278.95,-20.3667 2268.78,-17.3909 2269.15,-24.3815"/>
</g>
<!-- N30 -->
<g id="node31" class="node"><title>N30</title>
<ellipse fill="none" stroke="black" cx="418" cy="-90" rx="57.3905" ry="18"/>
<text text-anchor="middle" x="418" y="-86.3" font-family="Times,serif" font-size="14.00">advapi32&#45;sys</text>
</g>
<!-- N14&#45;&gt;N30 -->
<g id="edge58" class="edge"><title>N14&#45;&gt;N30</title>
<path fill="none" stroke="black" d="M464.816,-216.433C455.73,-192.088 438.679,-146.404 427.854,-117.402"/>
<polygon fill="black" stroke="black" points="431.084,-116.047 424.308,-107.902 424.526,-118.494 431.084,-116.047"/>
</g>
<!-- N15&#45;&gt;N17 -->
<g id="edge136" class="edge"><title>N15&#45;&gt;N17</title>
<path fill="none" stroke="black" d="M325.989,-359.883C331.957,-341.149 343.165,-310.754 359,-288 385.578,-249.809 393.153,-236.34 435,-216 533.589,-168.08 576.526,-218.926 679,-180 706.311,-169.626 706.386,-153.54 734,-144 910.663,-82.9677 967.524,-131.093 1153,-108 1175.73,-105.17 1201.09,-101.043 1221.09,-97.5642"/>
<polygon fill="black" stroke="black" points="1221.77,-100.998 1231.01,-95.8142 1220.55,-94.1044 1221.77,-100.998"/>
</g>
<!-- N15&#45;&gt;N18 -->
<g id="edge134" class="edge"><title>N15&#45;&gt;N18</title>
<path fill="none" stroke="black" d="M296.481,-361.811C280.561,-351.95 259.591,-338.959 242.062,-328.1"/>
<polygon fill="black" stroke="black" points="243.598,-324.935 233.254,-322.644 239.912,-330.886 243.598,-324.935"/>
</g>
<!-- N15&#45;&gt;N19 -->
<g id="edge135" class="edge"><title>N15&#45;&gt;N19</title>
<path fill="none" stroke="black" d="M321,-359.849C321,-322.832 321,-235.181 321,-190.386"/>
<polygon fill="black" stroke="black" points="324.5,-190.232 321,-180.232 317.5,-190.232 324.5,-190.232"/>
</g>
<!-- N16&#45;&gt;N14 -->
<g id="edge29" class="edge"><title>N16&#45;&gt;N14</title>
<path fill="none" stroke="black" d="M439.925,-288.055C444.831,-279.679 450.849,-269.404 456.279,-260.134"/>
<polygon fill="black" stroke="black" points="459.415,-261.705 461.449,-251.307 453.375,-258.167 459.415,-261.705"/>
</g>
<!-- N16&#45;&gt;N19 -->
<g id="edge30" class="edge"><title>N16&#45;&gt;N19</title>
<path fill="none" stroke="black" d="M405.466,-289.314C391.955,-279.762 375.621,-266.604 364,-252 348.874,-232.992 337.329,-207.792 330.028,-189.06"/>
<polygon fill="black" stroke="black" points="333.293,-187.797 326.508,-179.661 326.738,-190.253 333.293,-187.797"/>
</g>
<!-- N17&#45;&gt;N2 -->
<g id="edge21" class="edge"><title>N17&#45;&gt;N2</title>
<path fill="none" stroke="black" d="M1283.71,-86.0369C1383.8,-74.9337 1736.74,-35.7801 1851.59,-23.0393"/>
<polygon fill="black" stroke="black" points="1852.08,-26.5063 1861.63,-21.9249 1851.31,-19.5489 1852.08,-26.5063"/>
</g>
<!-- N18&#45;&gt;N14 -->
<g id="edge69" class="edge"><title>N18&#45;&gt;N14</title>
<path fill="none" stroke="black" d="M253.511,-292.887C305.559,-279.034 389.613,-256.662 436.526,-244.175"/>
<polygon fill="black" stroke="black" points="437.463,-247.548 446.226,-241.594 435.662,-240.784 437.463,-247.548"/>
</g>
<!-- N18&#45;&gt;N19 -->
<g id="edge68" class="edge"><title>N18&#45;&gt;N19</title>
<path fill="none" stroke="black" d="M221.406,-288.153C241.52,-262.878 279.571,-215.061 302.372,-186.409"/>
<polygon fill="black" stroke="black" points="305.158,-188.528 308.646,-178.524 299.681,-184.169 305.158,-188.528"/>
</g>
<!-- N19&#45;&gt;N4 -->
<g id="edge35" class="edge"><title>N19&#45;&gt;N4</title>
<path fill="none" stroke="black" d="M294.279,-158.85C263.007,-154.739 212.513,-142.779 189,-108 180.039,-94.7451 179.597,-84.9453 189,-72 215.775,-35.1387 268.826,-23.4112 307.147,-19.9388"/>
<polygon fill="black" stroke="black" points="307.818,-23.3985 317.53,-19.1643 307.298,-16.4179 307.818,-23.3985"/>
</g>
<!-- N19&#45;&gt;N21 -->
<g id="edge36" class="edge"><title>N19&#45;&gt;N21</title>
<path fill="none" stroke="black" d="M341.062,-149.914C346.126,-147.572 351.648,-145.39 357,-144 587.658,-84.0742 661.227,-167.483 892,-108 928.582,-98.5708 932.283,-80.8884 969,-72 1175.41,-22.0326 1711.81,-44.721 1924,-36 2050.55,-30.7989 2200.65,-23.9077 2268.91,-20.7346"/>
<polygon fill="black" stroke="black" points="2269.31,-24.2195 2279.14,-20.2581 2268.99,-17.2271 2269.31,-24.2195"/>
</g>
<!-- N34 -->
<g id="node35" class="node"><title>N34</title>
<ellipse fill="none" stroke="black" cx="287" cy="-90" rx="55.7903" ry="18"/>
<text text-anchor="middle" x="287" y="-86.3" font-family="Times,serif" font-size="14.00">kernel32&#45;sys</text>
</g>
<!-- N19&#45;&gt;N34 -->
<g id="edge34" class="edge"><title>N19&#45;&gt;N34</title>
<path fill="none" stroke="black" d="M313.114,-144.765C309.154,-136.611 304.257,-126.529 299.777,-117.307"/>
<polygon fill="black" stroke="black" points="302.835,-115.59 295.317,-108.124 296.538,-118.648 302.835,-115.59"/>
</g>
<!-- N20&#45;&gt;N21 -->
<g id="edge109" class="edge"><title>N20&#45;&gt;N21</title>
<path fill="none" stroke="black" d="M2680.1,-78.9249C2668.31,-76.5518 2655.72,-74.103 2644,-72 2534.57,-52.3576 2404.48,-33.1059 2342.43,-24.1738"/>
<polygon fill="black" stroke="black" points="2342.76,-20.685 2332.36,-22.7291 2341.76,-27.6141 2342.76,-20.685"/>
</g>
<!-- N59 -->
<g id="node60" class="node"><title>N59</title>
<ellipse fill="none" stroke="black" cx="2728" cy="-18" rx="49.2915" ry="18"/>
<text text-anchor="middle" x="2728" y="-14.3" font-family="Times,serif" font-size="14.00">pkg&#45;config</text>
</g>
<!-- N20&#45;&gt;N59 -->
<g id="edge110" class="edge"><title>N20&#45;&gt;N59</title>
<path fill="none" stroke="black" d="M2728,-71.6966C2728,-63.9827 2728,-54.7125 2728,-46.1124"/>
<polygon fill="black" stroke="black" points="2731.5,-46.1043 2728,-36.1043 2724.5,-46.1044 2731.5,-46.1043"/>
</g>
<!-- N22 -->
<g id="node23" class="node"><title>N22</title>
<ellipse fill="none" stroke="black" cx="2056" cy="-306" rx="59.2899" ry="18"/>
<text text-anchor="middle" x="2056" y="-302.3" font-family="Times,serif" font-size="14.00">asynchronous</text>
</g>
<!-- N22&#45;&gt;N1 -->
<g id="edge20" class="edge"><title>N22&#45;&gt;N1</title>
<path fill="none" stroke="black" d="M2028.11,-289.983C2008.62,-279.485 1982.42,-265.38 1961.44,-254.084"/>
<polygon fill="black" stroke="black" points="1962.97,-250.934 1952.51,-249.275 1959.66,-257.098 1962.97,-250.934"/>
</g>
<!-- N23 -->
<g id="node24" class="node"><title>N23</title>
<ellipse fill="none" stroke="black" cx="609" cy="-162" rx="61.1893" ry="18"/>
<text text-anchor="middle" x="609" y="-158.3" font-family="Times,serif" font-size="14.00">memory_map</text>
</g>
<!-- N23&#45;&gt;N4 -->
<g id="edge22" class="edge"><title>N23&#45;&gt;N4</title>
<path fill="none" stroke="black" d="M613.11,-143.972C616.792,-124.169 619.275,-91.6891 602,-72 588.397,-56.496 462.648,-35.5512 394.852,-25.2502"/>
<polygon fill="black" stroke="black" points="395.302,-21.7786 384.892,-23.7501 394.26,-28.7005 395.302,-21.7786"/>
</g>
<!-- N23&#45;&gt;N21 -->
<g id="edge23" class="edge"><title>N23&#45;&gt;N21</title>
<path fill="none" stroke="black" d="M654.032,-149.822C663.864,-147.654 674.246,-145.571 684,-144 847.992,-117.588 891.902,-133.749 1056,-108 1130.15,-96.3647 1146.59,-81.865 1221,-72 1274.01,-64.9715 2085.02,-28.7833 2269.05,-20.6321"/>
<polygon fill="black" stroke="black" points="2269.22,-24.1284 2279.05,-20.1895 2268.91,-17.1352 2269.22,-24.1284"/>
</g>
<!-- N24 -->
<g id="node25" class="node"><title>N24</title>
<ellipse fill="none" stroke="black" cx="827" cy="-90" rx="55.7903" ry="18"/>
<text text-anchor="middle" x="827" y="-86.3" font-family="Times,serif" font-size="14.00">kernel32&#45;sys</text>
</g>
<!-- N23&#45;&gt;N24 -->
<g id="edge24" class="edge"><title>N23&#45;&gt;N24</title>
<path fill="none" stroke="black" d="M648.731,-148.242C685.413,-136.464 739.966,-118.947 779.055,-106.395"/>
<polygon fill="black" stroke="black" points="780.188,-109.707 788.639,-103.318 778.048,-103.043 780.188,-109.707"/>
</g>
<!-- N24&#45;&gt;N4 -->
<g id="edge25" class="edge"><title>N24&#45;&gt;N4</title>
<path fill="none" stroke="black" d="M786.267,-77.5C778.264,-75.4808 769.9,-73.5372 762,-72 726.568,-65.1056 493.642,-36.3185 395.491,-24.3036"/>
<polygon fill="black" stroke="black" points="395.666,-20.7989 385.315,-23.0588 394.816,-27.7471 395.666,-20.7989"/>
</g>
<!-- N24&#45;&gt;N5 -->
<g id="edge26" class="edge"><title>N24&#45;&gt;N5</title>
<path fill="none" stroke="black" d="M785.042,-78.0236C777.376,-76.019 769.448,-73.9463 762,-72 710.56,-58.5583 651.785,-43.2145 610.762,-32.5076"/>
<polygon fill="black" stroke="black" points="611.55,-29.0963 600.99,-29.9575 609.782,-35.8694 611.55,-29.0963"/>
</g>
<!-- N26 -->
<g id="node27" class="node"><title>N26</title>
<ellipse fill="none" stroke="black" cx="1694" cy="-90" rx="40.0939" ry="18"/>
<text text-anchor="middle" x="1694" y="-86.3" font-family="Times,serif" font-size="14.00">matches</text>
</g>
<!-- N27 -->
<g id="node28" class="node"><title>N27</title>
<ellipse fill="none" stroke="black" cx="897" cy="-306" rx="27" ry="18"/>
<text text-anchor="middle" x="897" y="-302.3" font-family="Times,serif" font-size="14.00">num</text>
</g>
<!-- N27&#45;&gt;N11 -->
<g id="edge27" class="edge"><title>N27&#45;&gt;N11</title>
<path fill="none" stroke="black" d="M923.833,-302.9C994.192,-297.069 1182.4,-279.289 1238,-252 1258.88,-241.749 1254.76,-225.485 1276,-216 1455.57,-135.828 1527.61,-232.936 1717,-180 1751.46,-170.369 1754.48,-153.409 1789,-144 2014.22,-82.6079 2080.44,-128.26 2313,-108 2344.69,-105.24 2379.82,-101.598 2409.16,-98.3936"/>
<polygon fill="black" stroke="black" points="2409.72,-101.853 2419.28,-97.2805 2408.95,-94.8948 2409.72,-101.853"/>
</g>
<!-- N27&#45;&gt;N14 -->
<g id="edge28" class="edge"><title>N27&#45;&gt;N14</title>
<path fill="none" stroke="black" d="M870.993,-300.727C797.974,-288.728 590.944,-254.709 507.01,-240.917"/>
<polygon fill="black" stroke="black" points="507.372,-237.43 496.937,-239.262 506.237,-244.337 507.372,-237.43"/>
</g>
<!-- N28 -->
<g id="node29" class="node"><title>N28</title>
<ellipse fill="none" stroke="black" cx="738" cy="-306" rx="38.1938" ry="18"/>
<text text-anchor="middle" x="738" y="-302.3" font-family="Times,serif" font-size="14.00">tempdir</text>
</g>
<!-- N28&#45;&gt;N14 -->
<g id="edge31" class="edge"><title>N28&#45;&gt;N14</title>
<path fill="none" stroke="black" d="M705.261,-296.417C654.477,-283.103 557.187,-257.596 505.407,-244.021"/>
<polygon fill="black" stroke="black" points="506.246,-240.622 495.685,-241.472 504.47,-247.393 506.246,-240.622"/>
</g>
<!-- N29 -->
<g id="node30" class="node"><title>N29</title>
<ellipse fill="none" stroke="black" cx="562" cy="-90" rx="30.5947" ry="18"/>
<text text-anchor="middle" x="562" y="-86.3" font-family="Times,serif" font-size="14.00">cfg&#45;if</text>
</g>
<!-- N30&#45;&gt;N4 -->
<g id="edge32" class="edge"><title>N30&#45;&gt;N4</title>
<path fill="none" stroke="black" d="M402.359,-72.411C393.817,-63.351 383.105,-51.99 373.759,-42.0779"/>
<polygon fill="black" stroke="black" points="376.031,-39.3857 366.625,-34.5108 370.938,-44.1878 376.031,-39.3857"/>
</g>
<!-- N30&#45;&gt;N5 -->
<g id="edge33" class="edge"><title>N30&#45;&gt;N5</title>
<path fill="none" stroke="black" d="M447.215,-74.496C468.484,-63.937 497.493,-49.5354 520.629,-38.0493"/>
<polygon fill="black" stroke="black" points="522.422,-41.0672 529.822,-33.4855 519.309,-34.7973 522.422,-41.0672"/>
</g>
<!-- N31 -->
<g id="node32" class="node"><title>N31</title>
<ellipse fill="none" stroke="black" cx="2096" cy="-162" rx="55.7903" ry="18"/>
<text text-anchor="middle" x="2096" y="-158.3" font-family="Times,serif" font-size="14.00">regex&#45;syntax</text>
</g>
<!-- N32 -->
<g id="node33" class="node"><title>N32</title>
<ellipse fill="none" stroke="black" cx="1100" cy="-234" rx="46.2923" ry="18"/>
<text text-anchor="middle" x="1100" y="-230.3" font-family="Times,serif" font-size="14.00">traitobject</text>
</g>
<!-- N33 -->
<g id="node34" class="node"><title>N33</title>
<ellipse fill="none" stroke="black" cx="1345" cy="-234" rx="59.5901" ry="18"/>
<text text-anchor="middle" x="1345" y="-230.3" font-family="Times,serif" font-size="14.00">language&#45;tags</text>
</g>
<!-- N34&#45;&gt;N4 -->
<g id="edge111" class="edge"><title>N34&#45;&gt;N4</title>
<path fill="none" stroke="black" d="M302.404,-72.411C310.817,-63.351 321.366,-51.99 330.571,-42.0779"/>
<polygon fill="black" stroke="black" points="333.357,-44.2204 337.597,-34.5108 328.228,-39.4572 333.357,-44.2204"/>
</g>
<!-- N34&#45;&gt;N5 -->
<g id="edge112" class="edge"><title>N34&#45;&gt;N5</title>
<path fill="none" stroke="black" d="M328.95,-77.9945C336.617,-75.9929 344.547,-73.9287 352,-72 404.698,-58.3624 464.993,-42.9457 506.863,-32.27"/>
<polygon fill="black" stroke="black" points="507.738,-35.6589 516.564,-29.7972 506.009,-28.8757 507.738,-35.6589"/>
</g>
<!-- N35&#45;&gt;N11 -->
<g id="edge65" class="edge"><title>N35&#45;&gt;N11</title>
<path fill="none" stroke="black" d="M2817.87,-149.636C2809.98,-147.628 2801.76,-145.653 2794,-144 2705.52,-125.143 2602.07,-109.081 2537.28,-99.7321"/>
<polygon fill="black" stroke="black" points="2537.62,-96.2449 2527.22,-98.2899 2536.62,-103.174 2537.62,-96.2449"/>
</g>
<!-- N35&#45;&gt;N20 -->
<g id="edge67" class="edge"><title>N35&#45;&gt;N20</title>
<path fill="none" stroke="black" d="M2831.22,-146.155C2811.98,-135.877 2786.17,-122.081 2765.16,-110.859"/>
<polygon fill="black" stroke="black" points="2766.66,-107.691 2756.19,-106.065 2763.36,-113.865 2766.66,-107.691"/>
</g>
<!-- N35&#45;&gt;N21 -->
<g id="edge66" class="edge"><title>N35&#45;&gt;N21</title>
<path fill="none" stroke="black" d="M2816.61,-149.907C2759.02,-134.814 2662.73,-109.5 2659,-108 2628.36,-95.6767 2625.09,-83.1341 2594,-72 2507.22,-40.9214 2398.89,-27.2797 2343.08,-21.9653"/>
<polygon fill="black" stroke="black" points="2343.24,-18.4653 2332.96,-21.0391 2342.6,-25.4362 2343.24,-18.4653"/>
</g>
<!-- N36&#45;&gt;N7 -->
<g id="edge80" class="edge"><title>N36&#45;&gt;N7</title>
<path fill="none" stroke="black" d="M2223.36,-368.312C2278.09,-359.203 2364,-343.509 2437,-324 2442.73,-322.468 2448.76,-320.625 2454.57,-318.725"/>
<polygon fill="black" stroke="black" points="2455.69,-322.039 2464.05,-315.52 2453.45,-315.408 2455.69,-322.039"/>
</g>
<!-- N36&#45;&gt;N8 -->
<g id="edge78" class="edge"><title>N36&#45;&gt;N8</title>
<path fill="none" stroke="black" d="M2168,-359.697C2168,-351.983 2168,-342.712 2168,-334.112"/>
<polygon fill="black" stroke="black" points="2171.5,-334.104 2168,-324.104 2164.5,-334.104 2171.5,-334.104"/>
</g>
<!-- N36&#45;&gt;N11 -->
<g id="edge77" class="edge"><title>N36&#45;&gt;N11</title>
<path fill="none" stroke="black" d="M2211.6,-364.406C2248.4,-353.199 2297.63,-336.667 2314,-324 2388.09,-266.661 2440.66,-165.254 2462.6,-117.401"/>
<polygon fill="black" stroke="black" points="2465.9,-118.593 2466.81,-108.038 2459.52,-115.721 2465.9,-118.593"/>
</g>
<!-- N36&#45;&gt;N22 -->
<g id="edge74" class="edge"><title>N36&#45;&gt;N22</title>
<path fill="none" stroke="black" d="M2142.87,-361.291C2127.05,-351.405 2106.45,-338.533 2089.29,-327.804"/>
<polygon fill="black" stroke="black" points="2091,-324.748 2080.67,-322.416 2087.29,-330.684 2091,-324.748"/>
</g>
<!-- N36&#45;&gt;N23 -->
<g id="edge75" class="edge"><title>N36&#45;&gt;N23</title>
<path fill="none" stroke="black" d="M2104.79,-372.955C2047.45,-369.345 1960.57,-364.022 1885,-360 1540.23,-341.648 1451.61,-366.723 1109,-324 1029.77,-314.12 1011.43,-302.972 933,-288 842.996,-270.817 814.223,-288.091 730,-252 692.906,-236.105 656.442,-206.904 633.402,-186.293"/>
<polygon fill="black" stroke="black" points="635.582,-183.544 625.833,-179.396 630.868,-188.719 635.582,-183.544"/>
</g>
<!-- N36&#45;&gt;N28 -->
<g id="edge76" class="edge"><title>N36&#45;&gt;N28</title>
<path fill="none" stroke="black" d="M2105.08,-372.771C2047.75,-369.024 1960.71,-363.604 1885,-360 1430.12,-338.345 1314.7,-363.225 861,-324 835.391,-321.786 806.954,-317.946 783.879,-314.476"/>
<polygon fill="black" stroke="black" points="784.098,-310.969 773.683,-312.914 783.038,-317.888 784.098,-310.969"/>
</g>
<!-- N36&#45;&gt;N35 -->
<g id="edge79" class="edge"><title>N36&#45;&gt;N35</title>
<path fill="none" stroke="black" d="M2215.72,-365.48C2223.5,-363.629 2231.47,-361.749 2239,-360 2310,-343.513 2343.56,-371.323 2399,-324 2438.29,-290.457 2400.77,-247.139 2442,-216 2504.74,-168.608 2716.62,-193.989 2794,-180 2798.7,-179.15 2803.56,-178.136 2808.41,-177.034"/>
<polygon fill="black" stroke="black" points="2809.39,-180.4 2818.3,-174.669 2807.76,-173.592 2809.39,-180.4"/>
</g>
<!-- N42 -->
<g id="node43" class="node"><title>N42</title>
<ellipse fill="none" stroke="black" cx="2274" cy="-306" rx="30.5947" ry="18"/>
<text text-anchor="middle" x="2274" y="-302.3" font-family="Times,serif" font-size="14.00">flate2</text>
</g>
<!-- N36&#45;&gt;N42 -->
<g id="edge81" class="edge"><title>N36&#45;&gt;N42</title>
<path fill="none" stroke="black" d="M2192.05,-361.116C2207.93,-350.633 2228.8,-336.85 2245.5,-325.818"/>
<polygon fill="black" stroke="black" points="2247.88,-328.441 2254.3,-320.01 2244.03,-322.6 2247.88,-328.441"/>
</g>
<!-- N37 -->
<g id="node38" class="node"><title>N37</title>
<ellipse fill="none" stroke="black" cx="816" cy="-234" rx="34.394" ry="18"/>
<text text-anchor="middle" x="816" y="-230.3" font-family="Times,serif" font-size="14.00">cookie</text>
</g>
<!-- N37&#45;&gt;N19 -->
<g id="edge47" class="edge"><title>N37&#45;&gt;N19</title>
<path fill="none" stroke="black" d="M782.21,-229.739C683.12,-220.088 397.689,-191.615 357,-180 355.056,-179.445 353.086,-178.795 351.122,-178.079"/>
<polygon fill="black" stroke="black" points="352.069,-174.682 341.491,-174.081 349.385,-181.147 352.069,-174.682"/>
</g>
<!-- N38 -->
<g id="node39" class="node"><title>N38</title>
<ellipse fill="none" stroke="black" cx="1681" cy="-162" rx="27" ry="18"/>
<text text-anchor="middle" x="1681" y="-158.3" font-family="Times,serif" font-size="14.00">url</text>
</g>
<!-- N37&#45;&gt;N38 -->
<g id="edge46" class="edge"><title>N37&#45;&gt;N38</title>
<path fill="none" stroke="black" d="M841.033,-221.503C846.822,-219.297 853.035,-217.279 859,-216 1198.75,-143.131 1300.86,-255.681 1640,-180 1643.41,-179.238 1646.9,-178.213 1650.34,-177.041"/>
<polygon fill="black" stroke="black" points="1651.66,-180.282 1659.75,-173.447 1649.16,-173.743 1651.66,-180.282"/>
</g>
<!-- N38&#45;&gt;N11 -->
<g id="edge55" class="edge"><title>N38&#45;&gt;N11</title>
<path fill="none" stroke="black" d="M1705.74,-154.698C1721.23,-150.996 1741.66,-146.556 1760,-144 2003.94,-110.001 2067.59,-128.936 2313,-108 2344.69,-105.297 2379.82,-101.661 2409.16,-98.4467"/>
<polygon fill="black" stroke="black" points="2409.73,-101.906 2419.28,-97.3293 2408.96,-94.9479 2409.73,-101.906"/>
</g>
<!-- N38&#45;&gt;N26 -->
<g id="edge56" class="edge"><title>N38&#45;&gt;N26</title>
<path fill="none" stroke="black" d="M1684.15,-144.055C1685.58,-136.346 1687.31,-127.027 1688.92,-118.364"/>
<polygon fill="black" stroke="black" points="1692.41,-118.746 1690.79,-108.275 1685.52,-117.468 1692.41,-118.746"/>
</g>
<!-- N39 -->
<g id="node40" class="node"><title>N39</title>
<ellipse fill="none" stroke="black" cx="2274" cy="-234" rx="45.4919" ry="18"/>
<text text-anchor="middle" x="2274" y="-230.3" font-family="Times,serif" font-size="14.00">miniz&#45;sys</text>
</g>
<!-- N39&#45;&gt;N21 -->
<g id="edge49" class="edge"><title>N39&#45;&gt;N21</title>
<path fill="none" stroke="black" d="M2296.52,-218.215C2308.61,-208.871 2322.36,-195.621 2329,-180 2348.12,-135.022 2330.87,-77.2623 2317.69,-44.5683"/>
<polygon fill="black" stroke="black" points="2320.88,-43.1275 2313.78,-35.2686 2314.43,-45.8432 2320.88,-43.1275"/>
</g>
<!-- N40 -->
<g id="node41" class="node"><title>N40</title>
<ellipse fill="none" stroke="black" cx="393" cy="-162" rx="27" ry="18"/>
<text text-anchor="middle" x="393" y="-158.3" font-family="Times,serif" font-size="14.00">gcc</text>
</g>
<!-- N39&#45;&gt;N40 -->
<g id="edge48" class="edge"><title>N39&#45;&gt;N40</title>
<path fill="none" stroke="black" d="M2241.81,-221.227C2234.72,-219.096 2227.18,-217.179 2220,-216 1835.51,-152.861 853.686,-227.871 467,-180 453.918,-178.38 439.765,-175.432 427.373,-172.44"/>
<polygon fill="black" stroke="black" points="427.993,-168.987 417.441,-169.945 426.287,-175.776 427.993,-168.987"/>
</g>
<!-- N40&#45;&gt;N4 -->
<g id="edge114" class="edge"><title>N40&#45;&gt;N4</title>
<path fill="none" stroke="black" d="M371.951,-150.283C367.11,-148.037 361.933,-145.806 357,-144 298.687,-122.655 259.832,-157.242 222,-108 212.252,-95.3122 213.074,-85.2787 222,-72 241.096,-43.5921 278.365,-30.4023 308.12,-24.2831"/>
<polygon fill="black" stroke="black" points="309.094,-27.6624 318.29,-22.4002 307.82,-20.7794 309.094,-27.6624"/>
</g>
<!-- N40&#45;&gt;N30 -->
<g id="edge115" class="edge"><title>N40&#45;&gt;N30</title>
<path fill="none" stroke="black" d="M398.925,-144.411C401.778,-136.421 405.271,-126.642 408.484,-117.645"/>
<polygon fill="black" stroke="black" points="411.877,-118.551 411.944,-107.956 405.285,-116.196 411.877,-118.551"/>
</g>
<!-- N41&#45;&gt;N3 -->
<g id="edge53" class="edge"><title>N41&#45;&gt;N3</title>
<path fill="none" stroke="black" d="M524.126,-150.486C528.963,-148.229 534.119,-145.942 539,-144 576.501,-129.079 620.027,-115.013 652.512,-105.126"/>
<polygon fill="black" stroke="black" points="653.659,-108.436 662.221,-102.196 651.636,-101.735 653.659,-108.436"/>
</g>
<!-- N41&#45;&gt;N4 -->
<g id="edge50" class="edge"><title>N41&#45;&gt;N4</title>
<path fill="none" stroke="black" d="M503.867,-143.879C503.934,-124.29 501.093,-92.3073 484,-72 461.738,-45.5506 424.349,-32.1795 395.036,-25.4926"/>
<polygon fill="black" stroke="black" points="395.548,-22.0239 385.042,-23.3956 394.111,-28.8747 395.548,-22.0239"/>
</g>
<!-- N41&#45;&gt;N21 -->
<g id="edge51" class="edge"><title>N41&#45;&gt;N21</title>
<path fill="none" stroke="black" d="M523.459,-149.801C528.417,-147.523 533.793,-145.398 539,-144 724.217,-94.2612 782.623,-153.201 969,-108 1009.67,-98.1371 1015.13,-81.0053 1056,-72 1244.53,-30.4548 1731.12,-44.2915 1924,-36 2050.54,-30.5602 2200.65,-23.7861 2268.9,-20.6882"/>
<polygon fill="black" stroke="black" points="2269.31,-24.1735 2279.14,-20.2233 2268.99,-17.1807 2269.31,-24.1735"/>
</g>
<!-- N41&#45;&gt;N29 -->
<g id="edge54" class="edge"><title>N41&#45;&gt;N29</title>
<path fill="none" stroke="black" d="M515.802,-145.811C523.504,-136.673 533.47,-124.849 542.173,-114.524"/>
<polygon fill="black" stroke="black" points="545.046,-116.546 548.814,-106.644 539.693,-112.035 545.046,-116.546"/>
</g>
<!-- N41&#45;&gt;N34 -->
<g id="edge52" class="edge"><title>N41&#45;&gt;N34</title>
<path fill="none" stroke="black" d="M479.059,-153.241C444.339,-141.99 379.287,-120.908 334.588,-106.422"/>
<polygon fill="black" stroke="black" points="335.409,-103.009 324.817,-103.256 333.251,-109.668 335.409,-103.009"/>
</g>
<!-- N42&#45;&gt;N21 -->
<g id="edge60" class="edge"><title>N42&#45;&gt;N21</title>
<path fill="none" stroke="black" d="M2292.3,-291.377C2304.13,-281.645 2318.96,-267.56 2328,-252 2344.63,-223.385 2342.74,-212.82 2347,-180 2349.47,-160.937 2349.39,-81.8931 2346,-72 2342.11,-60.6451 2334.76,-49.759 2327.42,-40.8389"/>
<polygon fill="black" stroke="black" points="2329.99,-38.465 2320.78,-33.2426 2324.73,-43.0738 2329.99,-38.465"/>
</g>
<!-- N42&#45;&gt;N39 -->
<g id="edge61" class="edge"><title>N42&#45;&gt;N39</title>
<path fill="none" stroke="black" d="M2274,-287.697C2274,-279.983 2274,-270.712 2274,-262.112"/>
<polygon fill="black" stroke="black" points="2277.5,-262.104 2274,-252.104 2270.5,-262.104 2277.5,-262.104"/>
</g>
<!-- N43 -->
<g id="node44" class="node"><title>N43</title>
<ellipse fill="none" stroke="black" cx="1463" cy="-234" rx="40.0939" ry="18"/>
<text text-anchor="middle" x="1463" y="-230.3" font-family="Times,serif" font-size="14.00">typeable</text>
</g>
<!-- N44 -->
<g id="node45" class="node"><title>N44</title>
<ellipse fill="none" stroke="black" cx="1637" cy="-306" rx="34.394" ry="18"/>
<text text-anchor="middle" x="1637" y="-302.3" font-family="Times,serif" font-size="14.00">xml&#45;rs</text>
</g>
<!-- N45 -->
<g id="node46" class="node"><title>N45</title>
<ellipse fill="none" stroke="black" cx="1672" cy="-234" rx="37.0935" ry="18"/>
<text text-anchor="middle" x="1672" y="-230.3" font-family="Times,serif" font-size="14.00">bitflags</text>
</g>
<!-- N44&#45;&gt;N45 -->
<g id="edge62" class="edge"><title>N44&#45;&gt;N45</title>
<path fill="none" stroke="black" d="M1645.29,-288.411C1649.38,-280.249 1654.39,-270.22 1658.97,-261.065"/>
<polygon fill="black" stroke="black" points="1662.18,-262.466 1663.52,-251.956 1655.92,-259.335 1662.18,-262.466"/>
</g>
<!-- N46&#45;&gt;N31 -->
<g id="edge91" class="edge"><title>N46&#45;&gt;N31</title>
<path fill="none" stroke="black" d="M2163,-218.834C2151.57,-209.306 2136.25,-196.54 2123.14,-185.619"/>
<polygon fill="black" stroke="black" points="2125.25,-182.816 2115.32,-179.103 2120.77,-188.194 2125.25,-182.816"/>
</g>
<!-- N51 -->
<g id="node52" class="node"><title>N51</title>
<ellipse fill="none" stroke="black" cx="2264" cy="-90" rx="40.0939" ry="18"/>
<text text-anchor="middle" x="2264" y="-86.3" font-family="Times,serif" font-size="14.00">memchr</text>
</g>
<!-- N46&#45;&gt;N51 -->
<g id="edge90" class="edge"><title>N46&#45;&gt;N51</title>
<path fill="none" stroke="black" d="M2180.34,-215.69C2181.44,-196.787 2185.41,-166.245 2199,-144 2207.06,-130.803 2219.63,-119.433 2231.57,-110.646"/>
<polygon fill="black" stroke="black" points="2233.87,-113.304 2240.08,-104.715 2229.87,-107.561 2233.87,-113.304"/>
</g>
<!-- N54 -->
<g id="node55" class="node"><title>N54</title>
<ellipse fill="none" stroke="black" cx="2264" cy="-162" rx="55.7903" ry="18"/>
<text text-anchor="middle" x="2264" y="-158.3" font-family="Times,serif" font-size="14.00">aho&#45;corasick</text>
</g>
<!-- N46&#45;&gt;N54 -->
<g id="edge92" class="edge"><title>N46&#45;&gt;N54</title>
<path fill="none" stroke="black" d="M2197,-218.834C2208.43,-209.306 2223.75,-196.54 2236.86,-185.619"/>
<polygon fill="black" stroke="black" points="2239.23,-188.194 2244.68,-179.103 2234.75,-182.816 2239.23,-188.194"/>
</g>
<!-- N47 -->
<g id="node48" class="node"><title>N47</title>
<ellipse fill="none" stroke="black" cx="1197" cy="-234" rx="32.4942" ry="18"/>
<text text-anchor="middle" x="1197" y="-230.3" font-family="Times,serif" font-size="14.00">solicit</text>
</g>
<!-- N47&#45;&gt;N17 -->
<g id="edge71" class="edge"><title>N47&#45;&gt;N17</title>
<path fill="none" stroke="black" d="M1198.37,-215.885C1200.36,-197.42 1205.1,-167.505 1216,-144 1221.1,-133.012 1228.83,-122.194 1236.21,-113.226"/>
<polygon fill="black" stroke="black" points="1238.94,-115.422 1242.81,-105.558 1233.63,-110.858 1238.94,-115.422"/>
</g>
<!-- N48 -->
<g id="node49" class="node"><title>N48</title>
<ellipse fill="none" stroke="black" cx="1257" cy="-162" rx="31.6951" ry="18"/>
<text text-anchor="middle" x="1257" y="-158.3" font-family="Times,serif" font-size="14.00">hpack</text>
</g>
<!-- N47&#45;&gt;N48 -->
<g id="edge70" class="edge"><title>N47&#45;&gt;N48</title>
<path fill="none" stroke="black" d="M1210.32,-217.465C1218.16,-208.311 1228.24,-196.554 1237.02,-186.307"/>
<polygon fill="black" stroke="black" points="1239.87,-188.362 1243.72,-178.492 1234.56,-183.807 1239.87,-188.362"/>
</g>
<!-- N48&#45;&gt;N17 -->
<g id="edge82" class="edge"><title>N48&#45;&gt;N17</title>
<path fill="none" stroke="black" d="M1257,-143.697C1257,-135.983 1257,-126.712 1257,-118.112"/>
<polygon fill="black" stroke="black" points="1260.5,-118.104 1257,-108.104 1253.5,-118.104 1260.5,-118.104"/>
</g>
<!-- N51&#45;&gt;N21 -->
<g id="edge86" class="edge"><title>N51&#45;&gt;N21</title>
<path fill="none" stroke="black" d="M2273.95,-72.411C2279.1,-63.8323 2285.49,-53.1908 2291.2,-43.6695"/>
<polygon fill="black" stroke="black" points="2294.26,-45.3638 2296.41,-34.9881 2288.26,-41.7623 2294.26,-45.3638"/>
</g>
<!-- N52 -->
<g id="node53" class="node"><title>N52</title>
<ellipse fill="none" stroke="black" cx="796" cy="-162" rx="31.6951" ry="18"/>
<text text-anchor="middle" x="796" y="-158.3" font-family="Times,serif" font-size="14.00">mime</text>
</g>
<!-- N52&#45;&gt;N17 -->
<g id="edge87" class="edge"><title>N52&#45;&gt;N17</title>
<path fill="none" stroke="black" d="M820.986,-150.597C827.714,-148.119 835.054,-145.704 842,-144 851.189,-141.746 1120.45,-108.037 1220.25,-95.5808"/>
<polygon fill="black" stroke="black" points="1220.98,-99.0177 1230.47,-94.3064 1220.11,-92.0716 1220.98,-99.0177"/>
</g>
<!-- N53&#45;&gt;N4 -->
<g id="edge89" class="edge"><title>N53&#45;&gt;N4</title>
<path fill="none" stroke="black" d="M146.244,-143.753C149.749,-123.741 158.406,-91.0585 179,-72 214.193,-39.4309 268.927,-26.8583 307.385,-22.0151"/>
<polygon fill="black" stroke="black" points="308.226,-25.4425 317.77,-20.8438 307.441,-18.4866 308.226,-25.4425"/>
</g>
<!-- N53&#45;&gt;N34 -->
<g id="edge88" class="edge"><title>N53&#45;&gt;N34</title>
<path fill="none" stroke="black" d="M165.409,-150.52C187.293,-139.807 221.761,-122.935 248.418,-109.886"/>
<polygon fill="black" stroke="black" points="250.045,-112.987 257.488,-105.446 246.968,-106.699 250.045,-112.987"/>
</g>
<!-- N54&#45;&gt;N51 -->
<g id="edge113" class="edge"><title>N54&#45;&gt;N51</title>
<path fill="none" stroke="black" d="M2264,-143.697C2264,-135.983 2264,-126.712 2264,-118.112"/>
<polygon fill="black" stroke="black" points="2267.5,-118.104 2264,-108.104 2260.5,-118.104 2267.5,-118.104"/>
</g>
<!-- N55 -->
<g id="node56" class="node"><title>N55</title>
<ellipse fill="none" stroke="black" cx="1149" cy="-306" rx="30.5947" ry="18"/>
<text text-anchor="middle" x="1149" y="-302.3" font-family="Times,serif" font-size="14.00">hyper</text>
</g>
<!-- N55&#45;&gt;N1 -->
<g id="edge104" class="edge"><title>N55&#45;&gt;N1</title>
<path fill="none" stroke="black" d="M1178.98,-302.299C1295.26,-291.823 1717.5,-253.784 1870.31,-240.017"/>
<polygon fill="black" stroke="black" points="1870.77,-243.49 1880.41,-239.107 1870.14,-236.518 1870.77,-243.49"/>
</g>
<!-- N55&#45;&gt;N11 -->
<g id="edge98" class="edge"><title>N55&#45;&gt;N11</title>
<path fill="none" stroke="black" d="M1179.51,-305.114C1249.32,-304.52 1425.24,-298.148 1563,-252 1593.58,-241.757 1595.88,-227.533 1626,-216 1634.86,-212.606 1950.63,-145.484 1960,-144 2115.76,-119.346 2156.14,-124.28 2313,-108 2344.39,-104.743 2379.21,-101.073 2408.41,-97.979"/>
<polygon fill="black" stroke="black" points="2408.92,-101.445 2418.49,-96.9102 2408.18,-94.484 2408.92,-101.445"/>
</g>
<!-- N55&#45;&gt;N17 -->
<g id="edge103" class="edge"><title>N55&#45;&gt;N17</title>
<path fill="none" stroke="black" d="M1118.98,-301.846C1031.85,-292.554 784.391,-265.109 773,-252 762.506,-239.923 763.202,-228.649 773,-216 801.126,-179.687 1113.72,-117.951 1221.06,-97.6717"/>
<polygon fill="black" stroke="black" points="1221.91,-101.075 1231.09,-95.7862 1220.61,-94.1954 1221.91,-101.075"/>
</g>
<!-- N55&#45;&gt;N19 -->
<g id="edge105" class="edge"><title>N55&#45;&gt;N19</title>
<path fill="none" stroke="black" d="M1118.86,-302.302C1049.74,-295.872 874.658,-278.202 730,-252 661.687,-239.626 646.081,-229.59 578,-216 480.408,-196.52 452.033,-209.536 357,-180 355.069,-179.4 353.11,-178.715 351.154,-177.973"/>
<polygon fill="black" stroke="black" points="352.117,-174.58 341.543,-173.906 349.389,-181.027 352.117,-174.58"/>
</g>
<!-- N55&#45;&gt;N32 -->
<g id="edge97" class="edge"><title>N55&#45;&gt;N32</title>
<path fill="none" stroke="black" d="M1137.88,-289.116C1131.91,-280.592 1124.42,-269.886 1117.68,-260.251"/>
<polygon fill="black" stroke="black" points="1120.36,-257.983 1111.76,-251.797 1114.63,-261.997 1120.36,-257.983"/>
</g>
<!-- N55&#45;&gt;N33 -->
<g id="edge101" class="edge"><title>N55&#45;&gt;N33</title>
<path fill="none" stroke="black" d="M1174.62,-295.849C1206,-284.643 1259.74,-265.45 1298.49,-251.612"/>
<polygon fill="black" stroke="black" points="1299.75,-254.877 1307.99,-248.218 1297.4,-248.285 1299.75,-254.877"/>
</g>
<!-- N55&#45;&gt;N37 -->
<g id="edge95" class="edge"><title>N55&#45;&gt;N37</title>
<path fill="none" stroke="black" d="M1119.34,-301.529C1066.35,-294.9 952.248,-278.675 859,-252 856.412,-251.26 853.764,-250.422 851.117,-249.524"/>
<polygon fill="black" stroke="black" points="852.232,-246.206 841.638,-246.082 849.843,-252.785 852.232,-246.206"/>
</g>
<!-- N55&#45;&gt;N38 -->
<g id="edge93" class="edge"><title>N55&#45;&gt;N38</title>
<path fill="none" stroke="black" d="M1179.43,-304.022C1242.81,-301.242 1393,-290.756 1512,-252 1540.3,-242.783 1612.01,-202.728 1652.34,-179.617"/>
<polygon fill="black" stroke="black" points="1654.23,-182.567 1661.15,-174.548 1650.74,-176.498 1654.23,-182.567"/>
</g>
<!-- N55&#45;&gt;N43 -->
<g id="edge102" class="edge"><title>N55&#45;&gt;N43</title>
<path fill="none" stroke="black" d="M1178.32,-300.482C1227.51,-292.603 1329.57,-274.974 1414,-252 1416.99,-251.187 1420.06,-250.286 1423.13,-249.334"/>
<polygon fill="black" stroke="black" points="1424.45,-252.587 1432.88,-246.173 1422.29,-245.928 1424.45,-252.587"/>
</g>
<!-- N55&#45;&gt;N47 -->
<g id="edge96" class="edge"><title>N55&#45;&gt;N47</title>
<path fill="none" stroke="black" d="M1159.89,-289.116C1165.82,-280.469 1173.29,-269.575 1179.97,-259.833"/>
<polygon fill="black" stroke="black" points="1183.05,-261.534 1185.82,-251.307 1177.28,-257.575 1183.05,-261.534"/>
</g>
<!-- N55&#45;&gt;N52 -->
<g id="edge100" class="edge"><title>N55&#45;&gt;N52</title>
<path fill="none" stroke="black" d="M1119,-302.198C1026.72,-293.437 752.569,-266.303 740,-252 721.111,-230.505 746.349,-201.965 768.757,-183.067"/>
<polygon fill="black" stroke="black" points="771.218,-185.578 776.798,-176.571 766.82,-180.133 771.218,-185.578"/>
</g>
<!-- N56 -->
<g id="node57" class="node"><title>N56</title>
<ellipse fill="none" stroke="black" cx="905" cy="-234" rx="37.0935" ry="18"/>
<text text-anchor="middle" x="905" y="-230.3" font-family="Times,serif" font-size="14.00">unicase</text>
</g>
<!-- N55&#45;&gt;N56 -->
<g id="edge94" class="edge"><title>N55&#45;&gt;N56</title>
<path fill="none" stroke="black" d="M1121.22,-298.425C1082.7,-289.113 1011.03,-271.081 951,-252 948.262,-251.13 945.446,-250.193 942.62,-249.223"/>
<polygon fill="black" stroke="black" points="943.671,-245.883 933.077,-245.844 941.335,-252.481 943.671,-245.883"/>
</g>
<!-- N57 -->
<g id="node58" class="node"><title>N57</title>
<ellipse fill="none" stroke="black" cx="998" cy="-234" rx="38.1938" ry="18"/>
<text text-anchor="middle" x="998" y="-230.3" font-family="Times,serif" font-size="14.00">httparse</text>
</g>
<!-- N55&#45;&gt;N57 -->
<g id="edge99" class="edge"><title>N55&#45;&gt;N57</title>
<path fill="none" stroke="black" d="M1125.74,-294.216C1101.14,-282.811 1062.02,-264.678 1033.55,-251.479"/>
<polygon fill="black" stroke="black" points="1034.88,-248.24 1024.34,-247.21 1031.94,-254.591 1034.88,-248.24"/>
</g>
<!-- N58&#45;&gt;N44 -->
<g id="edge107" class="edge"><title>N58&#45;&gt;N44</title>
<path fill="none" stroke="black" d="M1637,-359.697C1637,-351.983 1637,-342.712 1637,-334.112"/>
<polygon fill="black" stroke="black" points="1640.5,-334.104 1637,-324.104 1633.5,-334.104 1640.5,-334.104"/>
</g>
<!-- N58&#45;&gt;N46 -->
<g id="edge106" class="edge"><title>N58&#45;&gt;N46</title>
<path fill="none" stroke="black" d="M1662.95,-373.027C1735.69,-361.837 1937.09,-330.447 1950,-324 1970.81,-313.608 1967.74,-299.435 1988,-288 2014.23,-273.194 2093.68,-253.994 2141.77,-243.238"/>
<polygon fill="black" stroke="black" points="2142.81,-246.593 2151.81,-241.012 2141.29,-239.759 2142.81,-246.593"/>
</g>
<!-- N58&#45;&gt;N55 -->
<g id="edge108" class="edge"><title>N58&#45;&gt;N55</title>
<path fill="none" stroke="black" d="M1616.51,-365.926C1611.55,-363.643 1606.18,-361.484 1601,-360 1453.62,-317.787 1269.98,-309.117 1189.72,-307.393"/>
<polygon fill="black" stroke="black" points="1189.61,-303.89 1179.54,-307.2 1189.48,-310.889 1189.61,-303.89"/>
</g>
<!-- N60&#45;&gt;N12 -->
<g id="edge117" class="edge"><title>N60&#45;&gt;N12</title>
<path fill="none" stroke="black" d="M912.533,-374.388C1034,-367.048 1386.94,-345.38 1680,-324 1731.64,-320.233 1790.34,-315.463 1832.7,-311.936"/>
<polygon fill="black" stroke="black" points="1833.16,-315.41 1842.83,-311.09 1832.57,-308.434 1833.16,-315.41"/>
</g>
<!-- N60&#45;&gt;N14 -->
<g id="edge118" class="edge"><title>N60&#45;&gt;N14</title>
<path fill="none" stroke="black" d="M832.755,-367.68C796.468,-358.007 739.243,-341.819 691,-324 654.045,-310.351 646.418,-303.023 610,-288 573.907,-273.111 531.969,-257.324 503.676,-246.892"/>
<polygon fill="black" stroke="black" points="504.863,-243.6 494.269,-243.436 502.449,-250.17 504.863,-243.6"/>
</g>
<!-- N60&#45;&gt;N17 -->
<g id="edge116" class="edge"><title>N60&#45;&gt;N17</title>
<path fill="none" stroke="black" d="M863.392,-360.005C856.073,-340.236 841.485,-307.787 819,-288 786.968,-259.812 753.853,-287.379 730,-252 710.734,-223.424 752.793,-145.725 755,-144 824.97,-89.3134 1064.9,-119.17 1153,-108 1175.72,-105.119 1201.09,-100.991 1221.08,-97.5241"/>
<polygon fill="black" stroke="black" points="1221.76,-100.959 1231,-95.7815 1220.55,-94.064 1221.76,-100.959"/>
</g>
<!-- N60&#45;&gt;N19 -->
<g id="edge119" class="edge"><title>N60&#45;&gt;N19</title>
<path fill="none" stroke="black" d="M855.639,-360.519C836.529,-337.376 801.843,-297.054 785,-288 702.75,-243.786 666.619,-281.439 578,-252 544.424,-240.846 540.206,-228.212 507,-216 442.654,-192.336 421.672,-202.758 357,-180 355.093,-179.329 353.152,-178.589 351.209,-177.805"/>
<polygon fill="black" stroke="black" points="352.2,-174.419 341.634,-173.632 349.403,-180.836 352.2,-174.419"/>
</g>
<!-- N60&#45;&gt;N27 -->
<g id="edge120" class="edge"><title>N60&#45;&gt;N27</title>
<path fill="none" stroke="black" d="M875.778,-360.055C879.011,-351.973 882.951,-342.121 886.555,-333.112"/>
<polygon fill="black" stroke="black" points="889.82,-334.374 890.284,-323.789 883.321,-331.774 889.82,-334.374"/>
</g>
</g>
</svg>
